<?xml version="1.0" encoding="UTF-8" standalone="no"?><svg xmlns="http://www.w3.org/2000/svg" xmlns:xlink="http://www.w3.org/1999/xlink" clip-rule="evenodd" stroke-miterlimit="10" viewBox="0 0 284 49"><desc>SVG generated by Keynote</desc><defs></defs><g transform="matrix(1.00, 0.00, -0.00, -1.00, 0.0, 49.0)"><text xml:space="preserve" font-family="HelveticaNeue-Light,Helvetica Neue" font-size="50.0" fill="#000000" transform="matrix(1.00, 0.00, -0.00, -1.00, -1.4, 11.4)">B</text><text xml:space="preserve" font-family="HelveticaNeue-Light,Helvetica Neue" font-size="50.0" fill="#000000" transform="matrix(1.00, 0.00, -0.00, -1.00, 32.0, 11.4)">l</text><text xml:space="preserve" font-family="HelveticaNeue-Light,Helvetica Neue" font-size="50.0" fill="#000000" transform="matrix(1.00, 0.00, -0.00, -1.00, 41.2, 11.4)">o</text><text xml:space="preserve" font-family="HelveticaNeue-Light,Helvetica Neue" font-size="50.0" fill="#000000" transform="matrix(1.00, 0.00, -0.00, -1.00, 69.0, 11.4)">c</text><text xml:space="preserve" font-family="HelveticaNeue-Light,Helvetica Neue" font-size="50.0" fill="#000000" transform="matrix(1.00, 0.00, -0.00, -1.00, 95.0, 11.4)">k</text><text xml:space="preserve" font-family="HelveticaNeue-Light,Helvetica Neue" font-size="50.0" fill="#000000" transform="matrix(1.00, 0.00, -0.00, -1.00, 120.0, 11.4)"> </text><text xml:space="preserve" font-family="HelveticaNeue-Light,Helvetica Neue" font-size="50.0" fill="#000000" transform="matrix(1.00, 0.00, -0.00, -1.00, 133.9, 11.4)">o</text><text xml:space="preserve" font-family="HelveticaNeue-Light,Helvetica Neue" font-size="50.0" fill="#000000" transform="matrix(1.00, 0.00, -0.00, -1.00, 161.7, 11.4)">f</text><text xml:space="preserve" font-family="HelveticaNeue-Light,Helvetica Neue" font-size="50.0" fill="#000000" transform="matrix(1.00, 0.00, -0.00, -1.00, 174.6, 11.4)"> </text><text xml:space="preserve" font-family="HelveticaNeue-Light,Helvetica Neue" font-size="50.0" fill="#000000" transform="matrix(1.00, 0.00, -0.00, -1.00, 188.5, 11.4)">y</text><text xml:space="preserve" font-family="HelveticaNeue-Light,Helvetica Neue" font-size="50.0" fill="#000000" transform="matrix(1.00, 0.00, -0.00, -1.00, 211.7, 11.4)">o</text><text xml:space="preserve" font-family="HelveticaNeue-Light,Helvetica Neue" font-size="50.0" fill="#000000" transform="matrix(1.00, 0.00, -0.00, -1.00, 239.5, 11.4)">u</text><text xml:space="preserve" font-family="HelveticaNeue-Light,Helvetica Neue" font-size="50.0" fill="#000000" transform="matrix(1.00, 0.00, -0.00, -1.00, 266.3, 11.4)">r</text></g></svg>