<?xml version="1.0" encoding="UTF-8" standalone="no"?><svg xmlns="http://www.w3.org/2000/svg" xmlns:xlink="http://www.w3.org/1999/xlink" clip-rule="evenodd" stroke-miterlimit="10" viewBox="0 0 1920 1080"><desc>SVG generated by Keynote</desc><defs></defs><g transform="matrix(1.00, 0.00, -0.00, -1.00, 0.0, 1080.0)"><path d="M 0.0 1080.0 L 1920.0 1080.0 L 1920.0 0.0 L 0.0 0.0 Z M 0.0 1080.0 " fill="#FEFFFF"></path><text xml:space="preserve" font-family="HelveticaNeue-Light,Helvetica Neue" font-size="80.0" fill="#000000" transform="matrix(1.00, 0.00, -0.00, -1.00, 802.2, 913.3)">S</text><text xml:space="preserve" font-family="HelveticaNeue-Light,Helvetica Neue" font-size="80.0" fill="#000000" transform="matrix(1.00, 0.00, -0.00, -1.00, 852.6, 913.3)">t</text><text xml:space="preserve" font-family="HelveticaNeue-Light,Helvetica Neue" font-size="80.0" fill="#000000" transform="matrix(1.00, 0.00, -0.00, -1.00, 876.2, 913.3)">r</text><text xml:space="preserve" font-family="HelveticaNeue-Light,Helvetica Neue" font-size="80.0" fill="#000000" transform="matrix(1.00, 0.00, -0.00, -1.00, 901.4, 913.3)">u</text><text xml:space="preserve" font-family="HelveticaNeue-Light,Helvetica Neue" font-size="80.0" fill="#000000" transform="matrix(1.00, 0.00, -0.00, -1.00, 944.4, 913.3)">c</text><text xml:space="preserve" font-family="HelveticaNeue-Light,Helvetica Neue" font-size="80.0" fill="#000000" transform="matrix(1.00, 0.00, -0.00, -1.00, 985.9, 913.3)">t</text><text xml:space="preserve" font-family="HelveticaNeue-Light,Helvetica Neue" font-size="80.0" fill="#000000" transform="matrix(1.00, 0.00, -0.00, -1.00, 1009.6, 913.3)">u</text><text xml:space="preserve" font-family="HelveticaNeue-Light,Helvetica Neue" font-size="80.0" fill="#000000" transform="matrix(1.00, 0.00, -0.00, -1.00, 1052.6, 913.3)">r</text><text xml:space="preserve" font-family="HelveticaNeue-Light,Helvetica Neue" font-size="80.0" fill="#000000" transform="matrix(1.00, 0.00, -0.00, -1.00, 1076.3, 913.3)">e</text><text xml:space="preserve" font-family="HelveticaNeue-Thin,Helvetica Neue" font-size="50.0" fill="#000000" transform="matrix(1.00, 0.00, -0.00, -1.00, 493.6, 767.4)">B</text><text xml:space="preserve" font-family="HelveticaNeue-Thin,Helvetica Neue" font-size="50.0" fill="#000000" transform="matrix(1.00, 0.00, -0.00, -1.00, 525.1, 767.4)">e</text><text xml:space="preserve" font-family="HelveticaNeue-Thin,Helvetica Neue" font-size="50.0" fill="#000000" transform="matrix(1.00, 0.00, -0.00, -1.00, 551.1, 767.4)">g</text><text xml:space="preserve" font-family="HelveticaNeue-Thin,Helvetica Neue" font-size="50.0" fill="#000000" transform="matrix(1.00, 0.00, -0.00, -1.00, 577.9, 767.4)">i</text><text xml:space="preserve" font-family="HelveticaNeue-Thin,Helvetica Neue" font-size="50.0" fill="#000000" transform="matrix(1.00, 0.00, -0.00, -1.00, 586.3, 767.4)">n</text><text xml:space="preserve" font-family="HelveticaNeue-Thin,Helvetica Neue" font-size="50.0" fill="#000000" transform="matrix(1.00, 0.00, -0.00, -1.00, 612.3, 767.4)">s</text><text xml:space="preserve" font-family="HelveticaNeue-Thin,Helvetica Neue" font-size="50.0" fill="#000000" transform="matrix(1.00, 0.00, -0.00, -1.00, 636.3, 767.4)"> </text><text xml:space="preserve" font-family="HelveticaNeue-Thin,Helvetica Neue" font-size="50.0" fill="#000000" transform="matrix(1.00, 0.00, -0.00, -1.00, 650.2, 767.4)">w</text><text xml:space="preserve" font-family="HelveticaNeue-Thin,Helvetica Neue" font-size="50.0" fill="#000000" transform="matrix(1.00, 0.00, -0.00, -1.00, 685.4, 767.4)">i</text><text xml:space="preserve" font-family="HelveticaNeue-Thin,Helvetica Neue" font-size="50.0" fill="#000000" transform="matrix(1.00, 0.00, -0.00, -1.00, 693.8, 767.4)">t</text><text xml:space="preserve" font-family="HelveticaNeue-Thin,Helvetica Neue" font-size="50.0" fill="#000000" transform="matrix(1.00, 0.00, -0.00, -1.00, 706.8, 767.4)">h</text><text xml:space="preserve" font-family="HelveticaNeue-Light,Helvetica Neue" font-size="50.0" fill="#000000" transform="matrix(1.00, 0.00, -0.00, -1.00, 732.7, 767.4)"> </text><text xml:space="preserve" font-family="32bit,32bit" font-size="86.0" fill="#000000" transform="matrix(1.00, 0.00, -0.00, -1.00, 746.6, 767.4)">&lt;</text><text xml:space="preserve" font-family="32bit,32bit" font-size="86.0" fill="#000000" transform="matrix(1.00, 0.00, -0.00, -1.00, 772.7, 767.4)">h</text><text xml:space="preserve" font-family="32bit,32bit" font-size="86.0" fill="#000000" transform="matrix(1.00, 0.00, -0.00, -1.00, 803.0, 767.4)">t</text><text xml:space="preserve" font-family="32bit,32bit" font-size="86.0" fill="#000000" transform="matrix(1.00, 0.00, -0.00, -1.00, 831.1, 767.4)">m</text><text xml:space="preserve" font-family="32bit,32bit" font-size="86.0" fill="#000000" transform="matrix(1.00, 0.00, -0.00, -1.00, 866.3, 767.4)">l</text><text xml:space="preserve" font-family="32bit,32bit" font-size="86.0" fill="#000000" transform="matrix(1.00, 0.00, -0.00, -1.00, 884.5, 767.4)">&gt;</text><text xml:space="preserve" font-family="32bit,32bit" font-size="86.0" fill="#000000" transform="matrix(1.00, 0.00, -0.00, -1.00, 910.5, 767.4)"> </text><text xml:space="preserve" font-family="HelveticaNeue-Thin,Helvetica Neue" font-size="50.0" fill="#000000" transform="matrix(1.00, 0.00, -0.00, -1.00, 929.7, 767.4)">a</text><text xml:space="preserve" font-family="HelveticaNeue-Thin,Helvetica Neue" font-size="50.0" fill="#000000" transform="matrix(1.00, 0.00, -0.00, -1.00, 954.7, 767.4)">n</text><text xml:space="preserve" font-family="HelveticaNeue-Thin,Helvetica Neue" font-size="50.0" fill="#000000" transform="matrix(1.00, 0.00, -0.00, -1.00, 980.7, 767.4)">d</text><text xml:space="preserve" font-family="HelveticaNeue-Thin,Helvetica Neue" font-size="50.0" fill="#000000" transform="matrix(1.00, 0.00, -0.00, -1.00, 1008.5, 767.4)"> </text><text xml:space="preserve" font-family="HelveticaNeue-Thin,Helvetica Neue" font-size="50.0" fill="#000000" transform="matrix(1.00, 0.00, -0.00, -1.00, 1022.4, 767.4)">e</text><text xml:space="preserve" font-family="HelveticaNeue-Thin,Helvetica Neue" font-size="50.0" fill="#000000" transform="matrix(1.00, 0.00, -0.00, -1.00, 1048.3, 767.4)">n</text><text xml:space="preserve" font-family="HelveticaNeue-Thin,Helvetica Neue" font-size="50.0" fill="#000000" transform="matrix(1.00, 0.00, -0.00, -1.00, 1074.3, 767.4)">d</text><text xml:space="preserve" font-family="HelveticaNeue-Thin,Helvetica Neue" font-size="50.0" fill="#000000" transform="matrix(1.00, 0.00, -0.00, -1.00, 1102.1, 767.4)">s</text><text xml:space="preserve" font-family="HelveticaNeue-Thin,Helvetica Neue" font-size="50.0" fill="#000000" transform="matrix(1.00, 0.00, -0.00, -1.00, 1126.1, 767.4)"> </text><text xml:space="preserve" font-family="HelveticaNeue-Thin,Helvetica Neue" font-size="50.0" fill="#000000" transform="matrix(1.00, 0.00, -0.00, -1.00, 1140.0, 767.4)">w</text><text xml:space="preserve" font-family="HelveticaNeue-Thin,Helvetica Neue" font-size="50.0" fill="#000000" transform="matrix(1.00, 0.00, -0.00, -1.00, 1175.2, 767.4)">i</text><text xml:space="preserve" font-family="HelveticaNeue-Thin,Helvetica Neue" font-size="50.0" fill="#000000" transform="matrix(1.00, 0.00, -0.00, -1.00, 1183.6, 767.4)">t</text><text xml:space="preserve" font-family="HelveticaNeue-Thin,Helvetica Neue" font-size="50.0" fill="#000000" transform="matrix(1.00, 0.00, -0.00, -1.00, 1196.6, 767.4)">h</text><text xml:space="preserve" font-family="HelveticaNeue-Light,Helvetica Neue" font-size="50.0" fill="#000000" transform="matrix(1.00, 0.00, -0.00, -1.00, 1222.5, 767.4)"> </text><text xml:space="preserve" font-family="32bit,32bit" font-size="86.0" fill="#000000" transform="matrix(1.00, 0.00, -0.00, -1.00, 1236.4, 767.4)">&lt;</text><text xml:space="preserve" font-family="32bit,32bit" font-size="86.0" fill="#000000" transform="matrix(1.00, 0.00, -0.00, -1.00, 1262.5, 767.4)">/</text><text xml:space="preserve" font-family="32bit,32bit" font-size="86.0" fill="#000000" transform="matrix(1.00, 0.00, -0.00, -1.00, 1288.5, 767.4)">h</text><text xml:space="preserve" font-family="32bit,32bit" font-size="86.0" fill="#000000" transform="matrix(1.00, 0.00, -0.00, -1.00, 1318.9, 767.4)">t</text><text xml:space="preserve" font-family="32bit,32bit" font-size="86.0" fill="#000000" transform="matrix(1.00, 0.00, -0.00, -1.00, 1346.9, 767.4)">m</text><text xml:space="preserve" font-family="32bit,32bit" font-size="86.0" fill="#000000" transform="matrix(1.00, 0.00, -0.00, -1.00, 1382.2, 767.4)">l</text><text xml:space="preserve" font-family="32bit,32bit" font-size="86.0" fill="#000000" transform="matrix(1.00, 0.00, -0.00, -1.00, 1400.3, 767.4)">&gt;</text><text xml:space="preserve" font-family="HelveticaNeue-Thin,Helvetica Neue" font-size="50.0" fill="#000000" transform="matrix(1.00, 0.00, -0.00, -1.00, 607.0, 634.6)">T</text><text xml:space="preserve" font-family="HelveticaNeue-Thin,Helvetica Neue" font-size="50.0" fill="#000000" transform="matrix(1.00, 0.00, -0.00, -1.00, 628.1, 634.6)">a</text><text xml:space="preserve" font-family="HelveticaNeue-Thin,Helvetica Neue" font-size="50.0" fill="#000000" transform="matrix(1.00, 0.00, -0.00, -1.00, 653.1, 634.6)">g</text><text xml:space="preserve" font-family="HelveticaNeue-Thin,Helvetica Neue" font-size="50.0" fill="#000000" transform="matrix(1.00, 0.00, -0.00, -1.00, 680.0, 634.6)">s</text><text xml:space="preserve" font-family="HelveticaNeue-Thin,Helvetica Neue" font-size="50.0" fill="#000000" transform="matrix(1.00, 0.00, -0.00, -1.00, 704.0, 634.6)"> </text><text xml:space="preserve" font-family="HelveticaNeue-Thin,Helvetica Neue" font-size="50.0" fill="#000000" transform="matrix(1.00, 0.00, -0.00, -1.00, 718.0, 634.6)">a</text><text xml:space="preserve" font-family="HelveticaNeue-Thin,Helvetica Neue" font-size="50.0" fill="#000000" transform="matrix(1.00, 0.00, -0.00, -1.00, 743.0, 634.6)">r</text><text xml:space="preserve" font-family="HelveticaNeue-Thin,Helvetica Neue" font-size="50.0" fill="#000000" transform="matrix(1.00, 0.00, -0.00, -1.00, 756.2, 634.6)">e</text><text xml:space="preserve" font-family="HelveticaNeue-Thin,Helvetica Neue" font-size="50.0" fill="#000000" transform="matrix(1.00, 0.00, -0.00, -1.00, 782.2, 634.6)"> </text><text xml:space="preserve" font-family="HelveticaNeue-Thin,Helvetica Neue" font-size="50.0" fill="#000000" transform="matrix(1.00, 0.00, -0.00, -1.00, 796.1, 634.6)">N</text><text xml:space="preserve" font-family="HelveticaNeue-Thin,Helvetica Neue" font-size="50.0" fill="#000000" transform="matrix(1.00, 0.00, -0.00, -1.00, 830.0, 634.6)">e</text><text xml:space="preserve" font-family="HelveticaNeue-Thin,Helvetica Neue" font-size="50.0" fill="#000000" transform="matrix(1.00, 0.00, -0.00, -1.00, 856.0, 634.6)">s</text><text xml:space="preserve" font-family="HelveticaNeue-Thin,Helvetica Neue" font-size="50.0" fill="#000000" transform="matrix(1.00, 0.00, -0.00, -1.00, 880.0, 634.6)">t</text><text xml:space="preserve" font-family="HelveticaNeue-Thin,Helvetica Neue" font-size="50.0" fill="#000000" transform="matrix(1.00, 0.00, -0.00, -1.00, 892.2, 634.6)">e</text><text xml:space="preserve" font-family="HelveticaNeue-Thin,Helvetica Neue" font-size="50.0" fill="#000000" transform="matrix(1.00, 0.00, -0.00, -1.00, 918.2, 634.6)">d</text><text xml:space="preserve" font-family="HelveticaNeue-Thin,Helvetica Neue" font-size="50.0" fill="#000000" transform="matrix(1.00, 0.00, -0.00, -1.00, 946.0, 634.6)"> </text><text xml:space="preserve" font-family="HelveticaNeue-Thin,Helvetica Neue" font-size="50.0" fill="#000000" transform="matrix(1.00, 0.00, -0.00, -1.00, 959.9, 634.6)">w</text><text xml:space="preserve" font-family="HelveticaNeue-Thin,Helvetica Neue" font-size="50.0" fill="#000000" transform="matrix(1.00, 0.00, -0.00, -1.00, 995.1, 634.6)">i</text><text xml:space="preserve" font-family="HelveticaNeue-Thin,Helvetica Neue" font-size="50.0" fill="#000000" transform="matrix(1.00, 0.00, -0.00, -1.00, 1003.5, 634.6)">t</text><text xml:space="preserve" font-family="HelveticaNeue-Thin,Helvetica Neue" font-size="50.0" fill="#000000" transform="matrix(1.00, 0.00, -0.00, -1.00, 1016.4, 634.6)">h</text><text xml:space="preserve" font-family="HelveticaNeue-Thin,Helvetica Neue" font-size="50.0" fill="#000000" transform="matrix(1.00, 0.00, -0.00, -1.00, 1042.4, 634.6)">i</text><text xml:space="preserve" font-family="HelveticaNeue-Thin,Helvetica Neue" font-size="50.0" fill="#000000" transform="matrix(1.00, 0.00, -0.00, -1.00, 1050.8, 634.6)">n</text><text xml:space="preserve" font-family="HelveticaNeue-Thin,Helvetica Neue" font-size="50.0" fill="#000000" transform="matrix(1.00, 0.00, -0.00, -1.00, 1076.8, 634.6)"> </text><text xml:space="preserve" font-family="HelveticaNeue-Thin,Helvetica Neue" font-size="50.0" fill="#000000" transform="matrix(1.00, 0.00, -0.00, -1.00, 1090.6, 634.6)">e</text><text xml:space="preserve" font-family="HelveticaNeue-Thin,Helvetica Neue" font-size="50.0" fill="#000000" transform="matrix(1.00, 0.00, -0.00, -1.00, 1116.6, 634.6)">a</text><text xml:space="preserve" font-family="HelveticaNeue-Thin,Helvetica Neue" font-size="50.0" fill="#000000" transform="matrix(1.00, 0.00, -0.00, -1.00, 1141.6, 634.6)">c</text><text xml:space="preserve" font-family="HelveticaNeue-Thin,Helvetica Neue" font-size="50.0" fill="#000000" transform="matrix(1.00, 0.00, -0.00, -1.00, 1167.5, 634.6)">h</text><text xml:space="preserve" font-family="HelveticaNeue-Thin,Helvetica Neue" font-size="50.0" fill="#000000" transform="matrix(1.00, 0.00, -0.00, -1.00, 1193.5, 634.6)"> </text><text xml:space="preserve" font-family="HelveticaNeue-Thin,Helvetica Neue" font-size="50.0" fill="#000000" transform="matrix(1.00, 0.00, -0.00, -1.00, 1207.4, 634.6)">o</text><text xml:space="preserve" font-family="HelveticaNeue-Thin,Helvetica Neue" font-size="50.0" fill="#000000" transform="matrix(1.00, 0.00, -0.00, -1.00, 1234.2, 634.6)">t</text><text xml:space="preserve" font-family="HelveticaNeue-Thin,Helvetica Neue" font-size="50.0" fill="#000000" transform="matrix(1.00, 0.00, -0.00, -1.00, 1247.2, 634.6)">h</text><text xml:space="preserve" font-family="HelveticaNeue-Thin,Helvetica Neue" font-size="50.0" fill="#000000" transform="matrix(1.00, 0.00, -0.00, -1.00, 1273.2, 634.6)">e</text><text xml:space="preserve" font-family="HelveticaNeue-Thin,Helvetica Neue" font-size="50.0" fill="#000000" transform="matrix(1.00, 0.00, -0.00, -1.00, 1299.1, 634.6)">r</text><text xml:space="preserve" font-family="32bit,32bit" font-size="70.0" fill="#000000" transform="matrix(1.00, 0.00, -0.00, -1.00, 893.3, 507.0)">&lt;</text><text xml:space="preserve" font-family="32bit,32bit" font-size="70.0" fill="#000000" transform="matrix(1.00, 0.00, -0.00, -1.00, 914.5, 507.0)">h</text><text xml:space="preserve" font-family="32bit,32bit" font-size="70.0" fill="#000000" transform="matrix(1.00, 0.00, -0.00, -1.00, 939.2, 507.0)">t</text><text xml:space="preserve" font-family="32bit,32bit" font-size="70.0" fill="#000000" transform="matrix(1.00, 0.00, -0.00, -1.00, 962.0, 507.0)">m</text><text xml:space="preserve" font-family="32bit,32bit" font-size="70.0" fill="#000000" transform="matrix(1.00, 0.00, -0.00, -1.00, 990.7, 507.0)">l</text><text xml:space="preserve" font-family="32bit,32bit" font-size="70.0" fill="#000000" transform="matrix(1.00, 0.00, -0.00, -1.00, 1005.5, 507.0)">&gt;</text><text xml:space="preserve" font-family="32bit,32bit" font-size="70.0" fill="#000000" transform="matrix(1.00, 0.00, -0.00, -1.00, 1026.7, 507.0)"> </text><text xml:space="preserve" font-family="32bit,32bit" font-size="70.0" fill="#000000" transform="matrix(1.00, 0.00, -0.00, -1.00, 809.8, 436.0)">&lt;</text><text xml:space="preserve" font-family="32bit,32bit" font-size="70.0" fill="#000000" transform="matrix(1.00, 0.00, -0.00, -1.00, 831.0, 436.0)">h</text><text xml:space="preserve" font-family="32bit,32bit" font-size="70.0" fill="#000000" transform="matrix(1.00, 0.00, -0.00, -1.00, 855.7, 436.0)">e</text><text xml:space="preserve" font-family="32bit,32bit" font-size="70.0" fill="#000000" transform="matrix(1.00, 0.00, -0.00, -1.00, 878.9, 436.0)">a</text><text xml:space="preserve" font-family="32bit,32bit" font-size="70.0" fill="#000000" transform="matrix(1.00, 0.00, -0.00, -1.00, 902.4, 436.0)">d</text><text xml:space="preserve" font-family="32bit,32bit" font-size="70.0" fill="#000000" transform="matrix(1.00, 0.00, -0.00, -1.00, 928.2, 436.0)">&gt;</text><text xml:space="preserve" font-family="32bit,32bit" font-size="70.0" fill="#000000" transform="matrix(1.00, 0.00, -0.00, -1.00, 949.4, 436.0)">&lt;</text><text xml:space="preserve" font-family="32bit,32bit" font-size="70.0" fill="#000000" transform="matrix(1.00, 0.00, -0.00, -1.00, 970.6, 436.0)">/</text><text xml:space="preserve" font-family="32bit,32bit" font-size="70.0" fill="#000000" transform="matrix(1.00, 0.00, -0.00, -1.00, 991.8, 436.0)">h</text><text xml:space="preserve" font-family="32bit,32bit" font-size="70.0" fill="#000000" transform="matrix(1.00, 0.00, -0.00, -1.00, 1016.5, 436.0)">e</text><text xml:space="preserve" font-family="32bit,32bit" font-size="70.0" fill="#000000" transform="matrix(1.00, 0.00, -0.00, -1.00, 1039.7, 436.0)">a</text><text xml:space="preserve" font-family="32bit,32bit" font-size="70.0" fill="#000000" transform="matrix(1.00, 0.00, -0.00, -1.00, 1063.2, 436.0)">d</text><text xml:space="preserve" font-family="32bit,32bit" font-size="70.0" fill="#000000" transform="matrix(1.00, 0.00, -0.00, -1.00, 1089.0, 436.0)">&gt;</text><text xml:space="preserve" font-family="32bit,32bit" font-size="70.0" fill="#000000" transform="matrix(1.00, 0.00, -0.00, -1.00, 1110.2, 436.0)"> </text><text xml:space="preserve" font-family="32bit,32bit" font-size="70.0" fill="#000000" transform="matrix(1.00, 0.00, -0.00, -1.00, 693.8, 365.0)">&lt;</text><text xml:space="preserve" font-family="32bit,32bit" font-size="70.0" fill="#000000" transform="matrix(1.00, 0.00, -0.00, -1.00, 715.0, 365.0)">b</text><text xml:space="preserve" font-family="32bit,32bit" font-size="70.0" fill="#000000" transform="matrix(1.00, 0.00, -0.00, -1.00, 739.6, 365.0)">o</text><text xml:space="preserve" font-family="32bit,32bit" font-size="70.0" fill="#000000" transform="matrix(1.00, 0.00, -0.00, -1.00, 764.6, 365.0)">d</text><text xml:space="preserve" font-family="32bit,32bit" font-size="70.0" fill="#000000" transform="matrix(1.00, 0.00, -0.00, -1.00, 790.3, 365.0)">y</text><text xml:space="preserve" font-family="32bit,32bit" font-size="70.0" fill="#000000" transform="matrix(1.00, 0.00, -0.00, -1.00, 815.1, 365.0)">&gt;</text><text xml:space="preserve" font-family="32bit,32bit" font-size="70.0" fill="#000000" transform="matrix(1.00, 0.00, -0.00, -1.00, 836.3, 365.0)">&lt;</text><text xml:space="preserve" font-family="32bit,32bit" font-size="70.0" fill="#000000" transform="matrix(1.00, 0.00, -0.00, -1.00, 857.5, 365.0)">p</text><text xml:space="preserve" font-family="32bit,32bit" font-size="70.0" fill="#000000" transform="matrix(1.00, 0.00, -0.00, -1.00, 881.2, 365.0)">&gt;</text><text xml:space="preserve" font-family="32bit,32bit" font-size="70.0" fill="#000000" transform="matrix(1.00, 0.00, -0.00, -1.00, 902.5, 365.0)">h</text><text xml:space="preserve" font-family="32bit,32bit" font-size="70.0" fill="#000000" transform="matrix(1.00, 0.00, -0.00, -1.00, 927.2, 365.0)">e</text><text xml:space="preserve" font-family="32bit,32bit" font-size="70.0" fill="#000000" transform="matrix(1.00, 0.00, -0.00, -1.00, 950.3, 365.0)">y</text><text xml:space="preserve" font-family="32bit,32bit" font-size="70.0" fill="#000000" transform="matrix(1.00, 0.00, -0.00, -1.00, 975.1, 365.0)">&lt;</text><text xml:space="preserve" font-family="32bit,32bit" font-size="70.0" fill="#000000" transform="matrix(1.00, 0.00, -0.00, -1.00, 996.3, 365.0)">/</text><text xml:space="preserve" font-family="32bit,32bit" font-size="70.0" fill="#000000" transform="matrix(1.00, 0.00, -0.00, -1.00, 1017.5, 365.0)">p</text><text xml:space="preserve" font-family="32bit,32bit" font-size="70.0" fill="#000000" transform="matrix(1.00, 0.00, -0.00, -1.00, 1041.3, 365.0)">&gt;</text><text xml:space="preserve" font-family="32bit,32bit" font-size="70.0" fill="#000000" transform="matrix(1.00, 0.00, -0.00, -1.00, 1062.5, 365.0)">&lt;</text><text xml:space="preserve" font-family="32bit,32bit" font-size="70.0" fill="#000000" transform="matrix(1.00, 0.00, -0.00, -1.00, 1083.7, 365.0)">/</text><text xml:space="preserve" font-family="32bit,32bit" font-size="70.0" fill="#000000" transform="matrix(1.00, 0.00, -0.00, -1.00, 1104.9, 365.0)">b</text><text xml:space="preserve" font-family="32bit,32bit" font-size="70.0" fill="#000000" transform="matrix(1.00, 0.00, -0.00, -1.00, 1129.5, 365.0)">o</text><text xml:space="preserve" font-family="32bit,32bit" font-size="70.0" fill="#000000" transform="matrix(1.00, 0.00, -0.00, -1.00, 1154.5, 365.0)">d</text><text xml:space="preserve" font-family="32bit,32bit" font-size="70.0" fill="#000000" transform="matrix(1.00, 0.00, -0.00, -1.00, 1180.2, 365.0)">y</text><text xml:space="preserve" font-family="32bit,32bit" font-size="70.0" fill="#000000" transform="matrix(1.00, 0.00, -0.00, -1.00, 1205.0, 365.0)">&gt;</text><text xml:space="preserve" font-family="32bit,32bit" font-size="70.0" fill="#000000" transform="matrix(1.00, 0.00, -0.00, -1.00, 1226.2, 365.0)"> </text><text xml:space="preserve" font-family="32bit,32bit" font-size="70.0" fill="#000000" transform="matrix(1.00, 0.00, -0.00, -1.00, 882.7, 294.0)">&lt;</text><text xml:space="preserve" font-family="32bit,32bit" font-size="70.0" fill="#000000" transform="matrix(1.00, 0.00, -0.00, -1.00, 903.9, 294.0)">/</text><text xml:space="preserve" font-family="32bit,32bit" font-size="70.0" fill="#000000" transform="matrix(1.00, 0.00, -0.00, -1.00, 925.1, 294.0)">h</text><text xml:space="preserve" font-family="32bit,32bit" font-size="70.0" fill="#000000" transform="matrix(1.00, 0.00, -0.00, -1.00, 949.8, 294.0)">t</text><text xml:space="preserve" font-family="32bit,32bit" font-size="70.0" fill="#000000" transform="matrix(1.00, 0.00, -0.00, -1.00, 972.6, 294.0)">m</text><text xml:space="preserve" font-family="32bit,32bit" font-size="70.0" fill="#000000" transform="matrix(1.00, 0.00, -0.00, -1.00, 1001.3, 294.0)">l</text><text xml:space="preserve" font-family="32bit,32bit" font-size="70.0" fill="#000000" transform="matrix(1.00, 0.00, -0.00, -1.00, 1016.1, 294.0)">&gt;</text></g></svg>