<?xml version="1.0" encoding="UTF-8" standalone="no"?><svg xmlns="http://www.w3.org/2000/svg" xmlns:xlink="http://www.w3.org/1999/xlink" clip-rule="evenodd" stroke-miterlimit="10" viewBox="0 0 361 50"><desc>SVG generated by Keynote</desc><defs></defs><g transform="matrix(1.00, 0.00, -0.00, -1.00, 0.0, 50.0)"><text xml:space="preserve" font-family="HelveticaNeue-Thin,Helvetica Neue" font-size="50.0" fill="#000000" transform="matrix(1.00, 0.00, -0.00, -1.00, -0.2, 11.6)">S</text><text xml:space="preserve" font-family="HelveticaNeue-Thin,Helvetica Neue" font-size="50.0" fill="#000000" transform="matrix(1.00, 0.00, -0.00, -1.00, 31.3, 11.6)">e</text><text xml:space="preserve" font-family="HelveticaNeue-Thin,Helvetica Neue" font-size="50.0" fill="#000000" transform="matrix(1.00, 0.00, -0.00, -1.00, 57.3, 11.6)">r</text><text xml:space="preserve" font-family="HelveticaNeue-Thin,Helvetica Neue" font-size="50.0" fill="#000000" transform="matrix(1.00, 0.00, -0.00, -1.00, 71.9, 11.6)">v</text><text xml:space="preserve" font-family="HelveticaNeue-Thin,Helvetica Neue" font-size="50.0" fill="#000000" transform="matrix(1.00, 0.00, -0.00, -1.00, 94.1, 11.6)">e</text><text xml:space="preserve" font-family="HelveticaNeue-Thin,Helvetica Neue" font-size="50.0" fill="#000000" transform="matrix(1.00, 0.00, -0.00, -1.00, 120.0, 11.6)">r</text><text xml:space="preserve" font-family="HelveticaNeue-Thin,Helvetica Neue" font-size="50.0" fill="#000000" transform="matrix(1.00, 0.00, -0.00, -1.00, 133.9, 11.6)"> </text><text xml:space="preserve" font-family="HelveticaNeue-Thin,Helvetica Neue" font-size="50.0" fill="#000000" transform="matrix(1.00, 0.00, -0.00, -1.00, 147.8, 11.6)">R</text><text xml:space="preserve" font-family="HelveticaNeue-Thin,Helvetica Neue" font-size="50.0" fill="#000000" transform="matrix(1.00, 0.00, -0.00, -1.00, 179.3, 11.6)">e</text><text xml:space="preserve" font-family="HelveticaNeue-Thin,Helvetica Neue" font-size="50.0" fill="#000000" transform="matrix(1.00, 0.00, -0.00, -1.00, 205.3, 11.6)">s</text><text xml:space="preserve" font-family="HelveticaNeue-Thin,Helvetica Neue" font-size="50.0" fill="#000000" transform="matrix(1.00, 0.00, -0.00, -1.00, 229.3, 11.6)">p</text><text xml:space="preserve" font-family="HelveticaNeue-Thin,Helvetica Neue" font-size="50.0" fill="#000000" transform="matrix(1.00, 0.00, -0.00, -1.00, 257.1, 11.6)">o</text><text xml:space="preserve" font-family="HelveticaNeue-Thin,Helvetica Neue" font-size="50.0" fill="#000000" transform="matrix(1.00, 0.00, -0.00, -1.00, 284.0, 11.6)">n</text><text xml:space="preserve" font-family="HelveticaNeue-Thin,Helvetica Neue" font-size="50.0" fill="#000000" transform="matrix(1.00, 0.00, -0.00, -1.00, 309.9, 11.6)">s</text><text xml:space="preserve" font-family="HelveticaNeue-Thin,Helvetica Neue" font-size="50.0" fill="#000000" transform="matrix(1.00, 0.00, -0.00, -1.00, 334.0, 11.6)">e</text></g></svg>