<?xml version="1.0" encoding="UTF-8" standalone="no"?><svg xmlns="http://www.w3.org/2000/svg" xmlns:xlink="http://www.w3.org/1999/xlink" clip-rule="evenodd" stroke-miterlimit="10" viewBox="0 0 776 51"><desc>SVG generated by Keynote</desc><defs></defs><g transform="matrix(1.00, 0.00, -0.00, -1.00, 0.0, 51.0)"><text xml:space="preserve" font-family="HelveticaNeue-Light,Helvetica Neue" font-size="50.0" fill="#000000" transform="matrix(1.00, 0.00, -0.00, -1.00, 2.3, 12.4)">W</text><text xml:space="preserve" font-family="HelveticaNeue-Light,Helvetica Neue" font-size="50.0" fill="#000000" transform="matrix(1.00, 0.00, -0.00, -1.00, 46.8, 12.4)">e</text><text xml:space="preserve" font-family="HelveticaNeue-Light,Helvetica Neue" font-size="50.0" fill="#000000" transform="matrix(1.00, 0.00, -0.00, -1.00, 72.7, 12.4)"> </text><text xml:space="preserve" font-family="HelveticaNeue-Light,Helvetica Neue" font-size="50.0" fill="#000000" transform="matrix(1.00, 0.00, -0.00, -1.00, 86.6, 12.4)">a</text><text xml:space="preserve" font-family="HelveticaNeue-Light,Helvetica Neue" font-size="50.0" fill="#000000" transform="matrix(1.00, 0.00, -0.00, -1.00, 112.6, 12.4)">r</text><text xml:space="preserve" font-family="HelveticaNeue-Light,Helvetica Neue" font-size="50.0" fill="#000000" transform="matrix(1.00, 0.00, -0.00, -1.00, 127.4, 12.4)">e</text><text xml:space="preserve" font-family="HelveticaNeue-Light,Helvetica Neue" font-size="50.0" fill="#000000" transform="matrix(1.00, 0.00, -0.00, -1.00, 153.4, 12.4)"> </text><text xml:space="preserve" font-family="HelveticaNeue-Light,Helvetica Neue" font-size="50.0" fill="#000000" transform="matrix(1.00, 0.00, -0.00, -1.00, 167.3, 12.4)">H</text><text xml:space="preserve" font-family="HelveticaNeue-Light,Helvetica Neue" font-size="50.0" fill="#000000" transform="matrix(1.00, 0.00, -0.00, -1.00, 202.5, 12.4)">e</text><text xml:space="preserve" font-family="HelveticaNeue-Light,Helvetica Neue" font-size="50.0" fill="#000000" transform="matrix(1.00, 0.00, -0.00, -1.00, 228.4, 12.4)">a</text><text xml:space="preserve" font-family="HelveticaNeue-Light,Helvetica Neue" font-size="50.0" fill="#000000" transform="matrix(1.00, 0.00, -0.00, -1.00, 254.4, 12.4)">r</text><text xml:space="preserve" font-family="HelveticaNeue-Light,Helvetica Neue" font-size="50.0" fill="#000000" transform="matrix(1.00, 0.00, -0.00, -1.00, 270.1, 12.4)">i</text><text xml:space="preserve" font-family="HelveticaNeue-Light,Helvetica Neue" font-size="50.0" fill="#000000" transform="matrix(1.00, 0.00, -0.00, -1.00, 279.4, 12.4)">n</text><text xml:space="preserve" font-family="HelveticaNeue-Light,Helvetica Neue" font-size="50.0" fill="#000000" transform="matrix(1.00, 0.00, -0.00, -1.00, 306.2, 12.4)">g</text><text xml:space="preserve" font-family="HelveticaNeue-Light,Helvetica Neue" font-size="50.0" fill="#000000" transform="matrix(1.00, 0.00, -0.00, -1.00, 334.0, 12.4)"> </text><text xml:space="preserve" font-family="HelveticaNeue-Light,Helvetica Neue" font-size="50.0" fill="#000000" transform="matrix(1.00, 0.00, -0.00, -1.00, 347.9, 12.4)">A</text><text xml:space="preserve" font-family="HelveticaNeue-Light,Helvetica Neue" font-size="50.0" fill="#000000" transform="matrix(1.00, 0.00, -0.00, -1.00, 379.4, 12.4)">b</text><text xml:space="preserve" font-family="HelveticaNeue-Light,Helvetica Neue" font-size="50.0" fill="#000000" transform="matrix(1.00, 0.00, -0.00, -1.00, 408.1, 12.4)">o</text><text xml:space="preserve" font-family="HelveticaNeue-Light,Helvetica Neue" font-size="50.0" fill="#000000" transform="matrix(1.00, 0.00, -0.00, -1.00, 435.9, 12.4)">u</text><text xml:space="preserve" font-family="HelveticaNeue-Light,Helvetica Neue" font-size="50.0" fill="#000000" transform="matrix(1.00, 0.00, -0.00, -1.00, 462.8, 12.4)">t</text><text xml:space="preserve" font-family="HelveticaNeue-Light,Helvetica Neue" font-size="50.0" fill="#000000" transform="matrix(1.00, 0.00, -0.00, -1.00, 477.6, 12.4)"> </text><text xml:space="preserve" font-family="HelveticaNeue-Light,Helvetica Neue" font-size="50.0" fill="#000000" transform="matrix(1.00, 0.00, -0.00, -1.00, 491.5, 12.4)">L</text><text xml:space="preserve" font-family="HelveticaNeue-Light,Helvetica Neue" font-size="50.0" fill="#000000" transform="matrix(1.00, 0.00, -0.00, -1.00, 518.3, 12.4)">o</text><text xml:space="preserve" font-family="HelveticaNeue-Light,Helvetica Neue" font-size="50.0" fill="#000000" transform="matrix(1.00, 0.00, -0.00, -1.00, 546.1, 12.4)">t</text><text xml:space="preserve" font-family="HelveticaNeue-Light,Helvetica Neue" font-size="50.0" fill="#000000" transform="matrix(1.00, 0.00, -0.00, -1.00, 560.9, 12.4)">s</text><text xml:space="preserve" font-family="HelveticaNeue-Light,Helvetica Neue" font-size="50.0" fill="#000000" transform="matrix(1.00, 0.00, -0.00, -1.00, 585.0, 12.4)"> </text><text xml:space="preserve" font-family="HelveticaNeue-Light,Helvetica Neue" font-size="50.0" fill="#000000" transform="matrix(1.00, 0.00, -0.00, -1.00, 598.9, 12.4)">o</text><text xml:space="preserve" font-family="HelveticaNeue-Light,Helvetica Neue" font-size="50.0" fill="#000000" transform="matrix(1.00, 0.00, -0.00, -1.00, 626.7, 12.4)">f</text><text xml:space="preserve" font-family="HelveticaNeue-Light,Helvetica Neue" font-size="50.0" fill="#000000" transform="matrix(1.00, 0.00, -0.00, -1.00, 639.6, 12.4)"> </text><text xml:space="preserve" font-family="HelveticaNeue-Light,Helvetica Neue" font-size="50.0" fill="#000000" transform="matrix(1.00, 0.00, -0.00, -1.00, 653.5, 12.4)">S</text><text xml:space="preserve" font-family="HelveticaNeue-Light,Helvetica Neue" font-size="50.0" fill="#000000" transform="matrix(1.00, 0.00, -0.00, -1.00, 685.0, 12.4)">t</text><text xml:space="preserve" font-family="HelveticaNeue-Light,Helvetica Neue" font-size="50.0" fill="#000000" transform="matrix(1.00, 0.00, -0.00, -1.00, 699.8, 12.4)">u</text><text xml:space="preserve" font-family="HelveticaNeue-Light,Helvetica Neue" font-size="50.0" fill="#000000" transform="matrix(1.00, 0.00, -0.00, -1.00, 726.7, 12.4)">f</text><text xml:space="preserve" font-family="HelveticaNeue-Light,Helvetica Neue" font-size="50.0" fill="#000000" transform="matrix(1.00, 0.00, -0.00, -1.00, 738.7, 12.4)">f</text><text xml:space="preserve" font-family="HelveticaNeue-Light,Helvetica Neue" font-size="50.0" fill="#000000" transform="matrix(1.00, 0.00, -0.00, -1.00, 751.7, 12.4)">s</text></g></svg>