<?xml version="1.0" encoding="UTF-8" standalone="no"?><svg xmlns="http://www.w3.org/2000/svg" xmlns:xlink="http://www.w3.org/1999/xlink" clip-rule="evenodd" stroke-miterlimit="10" viewBox="0 0 532 28"><desc>SVG generated by Keynote</desc><defs></defs><g transform="matrix(1.00, 0.00, -0.00, -1.00, 0.0, 28.0)"><text xml:space="preserve" font-family="32bit,32bit" font-size="70.0" fill="#000000" transform="matrix(1.00, 0.00, -0.00, -1.00, 1.8, 4.0)">&lt;</text><text xml:space="preserve" font-family="32bit,32bit" font-size="70.0" fill="#000000" transform="matrix(1.00, 0.00, -0.00, -1.00, 23.0, 4.0)">b</text><text xml:space="preserve" font-family="32bit,32bit" font-size="70.0" fill="#000000" transform="matrix(1.00, 0.00, -0.00, -1.00, 47.6, 4.0)">o</text><text xml:space="preserve" font-family="32bit,32bit" font-size="70.0" fill="#000000" transform="matrix(1.00, 0.00, -0.00, -1.00, 72.6, 4.0)">d</text><text xml:space="preserve" font-family="32bit,32bit" font-size="70.0" fill="#000000" transform="matrix(1.00, 0.00, -0.00, -1.00, 98.3, 4.0)">y</text><text xml:space="preserve" font-family="32bit,32bit" font-size="70.0" fill="#000000" transform="matrix(1.00, 0.00, -0.00, -1.00, 123.1, 4.0)">&gt;</text><text xml:space="preserve" font-family="32bit,32bit" font-size="70.0" fill="#000000" transform="matrix(1.00, 0.00, -0.00, -1.00, 144.3, 4.0)">&lt;</text><text xml:space="preserve" font-family="32bit,32bit" font-size="70.0" fill="#000000" transform="matrix(1.00, 0.00, -0.00, -1.00, 165.5, 4.0)">p</text><text xml:space="preserve" font-family="32bit,32bit" font-size="70.0" fill="#000000" transform="matrix(1.00, 0.00, -0.00, -1.00, 189.2, 4.0)">&gt;</text><text xml:space="preserve" font-family="32bit,32bit" font-size="70.0" fill="#000000" transform="matrix(1.00, 0.00, -0.00, -1.00, 210.5, 4.0)">h</text><text xml:space="preserve" font-family="32bit,32bit" font-size="70.0" fill="#000000" transform="matrix(1.00, 0.00, -0.00, -1.00, 235.2, 4.0)">e</text><text xml:space="preserve" font-family="32bit,32bit" font-size="70.0" fill="#000000" transform="matrix(1.00, 0.00, -0.00, -1.00, 258.3, 4.0)">y</text><text xml:space="preserve" font-family="32bit,32bit" font-size="70.0" fill="#000000" transform="matrix(1.00, 0.00, -0.00, -1.00, 283.1, 4.0)">&lt;</text><text xml:space="preserve" font-family="32bit,32bit" font-size="70.0" fill="#000000" transform="matrix(1.00, 0.00, -0.00, -1.00, 304.3, 4.0)">/</text><text xml:space="preserve" font-family="32bit,32bit" font-size="70.0" fill="#000000" transform="matrix(1.00, 0.00, -0.00, -1.00, 325.5, 4.0)">p</text><text xml:space="preserve" font-family="32bit,32bit" font-size="70.0" fill="#000000" transform="matrix(1.00, 0.00, -0.00, -1.00, 349.3, 4.0)">&gt;</text><text xml:space="preserve" font-family="32bit,32bit" font-size="70.0" fill="#000000" transform="matrix(1.00, 0.00, -0.00, -1.00, 370.5, 4.0)">&lt;</text><text xml:space="preserve" font-family="32bit,32bit" font-size="70.0" fill="#000000" transform="matrix(1.00, 0.00, -0.00, -1.00, 391.7, 4.0)">/</text><text xml:space="preserve" font-family="32bit,32bit" font-size="70.0" fill="#000000" transform="matrix(1.00, 0.00, -0.00, -1.00, 412.9, 4.0)">b</text><text xml:space="preserve" font-family="32bit,32bit" font-size="70.0" fill="#000000" transform="matrix(1.00, 0.00, -0.00, -1.00, 437.5, 4.0)">o</text><text xml:space="preserve" font-family="32bit,32bit" font-size="70.0" fill="#000000" transform="matrix(1.00, 0.00, -0.00, -1.00, 462.5, 4.0)">d</text><text xml:space="preserve" font-family="32bit,32bit" font-size="70.0" fill="#000000" transform="matrix(1.00, 0.00, -0.00, -1.00, 488.2, 4.0)">y</text><text xml:space="preserve" font-family="32bit,32bit" font-size="70.0" fill="#000000" transform="matrix(1.00, 0.00, -0.00, -1.00, 513.0, 4.0)">&gt;</text></g></svg>