<?xml version="1.0" encoding="UTF-8" standalone="no"?><svg xmlns="http://www.w3.org/2000/svg" xmlns:xlink="http://www.w3.org/1999/xlink" clip-rule="evenodd" stroke-miterlimit="10" viewBox="0 0 459 53"><desc>SVG generated by Keynote</desc><defs></defs><g transform="matrix(1.00, 0.00, -0.00, -1.00, 0.0, 53.0)"><text xml:space="preserve" font-family="KGBrokenVesselsSketch,KG Broken Vessels Sketch" font-size="50.0" fill="#000000" transform="matrix(1.00, 0.00, -0.00, -1.00, 0.2, 12.6)">P</text><text xml:space="preserve" font-family="KGBrokenVesselsSketch,KG Broken Vessels Sketch" font-size="50.0" fill="#000000" transform="matrix(1.00, 0.00, -0.00, -1.00, 26.7, 12.6)">r</text><text xml:space="preserve" font-family="KGBrokenVesselsSketch,KG Broken Vessels Sketch" font-size="50.0" fill="#000000" transform="matrix(1.00, 0.00, -0.00, -1.00, 51.4, 12.6)">o</text><text xml:space="preserve" font-family="KGBrokenVesselsSketch,KG Broken Vessels Sketch" font-size="50.0" fill="#000000" transform="matrix(1.00, 0.00, -0.00, -1.00, 83.6, 12.6)">g</text><text xml:space="preserve" font-family="KGBrokenVesselsSketch,KG Broken Vessels Sketch" font-size="50.0" fill="#000000" transform="matrix(1.00, 0.00, -0.00, -1.00, 117.6, 12.6)">r</text><text xml:space="preserve" font-family="KGBrokenVesselsSketch,KG Broken Vessels Sketch" font-size="50.0" fill="#000000" transform="matrix(1.00, 0.00, -0.00, -1.00, 142.3, 12.6)">a</text><text xml:space="preserve" font-family="KGBrokenVesselsSketch,KG Broken Vessels Sketch" font-size="50.0" fill="#000000" transform="matrix(1.00, 0.00, -0.00, -1.00, 175.7, 12.6)">m</text><text xml:space="preserve" font-family="KGBrokenVesselsSketch,KG Broken Vessels Sketch" font-size="50.0" fill="#000000" transform="matrix(1.00, 0.00, -0.00, -1.00, 222.2, 12.6)"> </text><text xml:space="preserve" font-family="KGBrokenVesselsSketch,KG Broken Vessels Sketch" font-size="50.0" fill="#000000" transform="matrix(1.00, 0.00, -0.00, -1.00, 238.7, 12.6)">t</text><text xml:space="preserve" font-family="KGBrokenVesselsSketch,KG Broken Vessels Sketch" font-size="50.0" fill="#000000" transform="matrix(1.00, 0.00, -0.00, -1.00, 258.9, 12.6)">h</text><text xml:space="preserve" font-family="KGBrokenVesselsSketch,KG Broken Vessels Sketch" font-size="50.0" fill="#000000" transform="matrix(1.00, 0.00, -0.00, -1.00, 288.5, 12.6)">e</text><text xml:space="preserve" font-family="KGBrokenVesselsSketch,KG Broken Vessels Sketch" font-size="50.0" fill="#000000" transform="matrix(1.00, 0.00, -0.00, -1.00, 321.1, 12.6)"> </text><text xml:space="preserve" font-family="KGBrokenVesselsSketch,KG Broken Vessels Sketch" font-size="50.0" fill="#000000" transform="matrix(1.00, 0.00, -0.00, -1.00, 337.6, 12.6)">w</text><text xml:space="preserve" font-family="KGBrokenVesselsSketch,KG Broken Vessels Sketch" font-size="50.0" fill="#000000" transform="matrix(1.00, 0.00, -0.00, -1.00, 378.4, 12.6)">e</text><text xml:space="preserve" font-family="KGBrokenVesselsSketch,KG Broken Vessels Sketch" font-size="50.0" fill="#000000" transform="matrix(1.00, 0.00, -0.00, -1.00, 410.9, 12.6)">b</text><text xml:space="preserve" font-family="KGBrokenVesselsSketch,KG Broken Vessels Sketch" font-size="50.0" fill="#000000" transform="matrix(1.00, 0.00, -0.00, -1.00, 445.2, 12.6)">.</text></g></svg>