<?xml version="1.0" encoding="UTF-8" standalone="no"?><svg xmlns="http://www.w3.org/2000/svg" xmlns:xlink="http://www.w3.org/1999/xlink" clip-rule="evenodd" stroke-miterlimit="10" viewBox="0 0 352 79"><desc>SVG generated by Keynote</desc><defs></defs><g transform="matrix(1.00, 0.00, -0.00, -1.00, 0.0, 79.0)"><image xlink:href="7E29A6BF6AE08CAD682562C1CD121C8F.png" width="349.00" height="73.00" transform="matrix(1.00, 0.00, -0.00, -0.99, 1.3, 73.5)" opacity="0.50"></image><path d="M 93.6 72.0 C 88.7 71.5 85.0 67.5 85.0 62.5 L 85.0 28.1 L 4.4 20.9 L 85.1 13.5 C 86.2 9.8 89.5 7.0 93.6 7.0 L 337.2 7.0 C 342.2 7.0 346.0 11.0 346.0 16.0 L 346.0 62.5 C 346.0 67.5 342.2 72.0 337.2 72.0 L 93.6 72.0 Z M 93.6 71.5 " fill="#FEFFFE"></path><path d="M 9.0 -0.5 C 4.0 0.0 0.4 4.0 0.4 9.0 L 0.4 43.4 L -80.2 50.7 L 0.5 58.0 C 1.6 61.8 4.9 64.5 9.0 64.5 L 252.6 64.5 C 257.5 64.5 261.4 60.5 261.4 55.6 L 261.4 9.0 C 261.4 4.0 257.5 -0.5 252.6 -0.5 L 9.0 -0.5 Z M 9.0 0.0 " fill="none" stroke="#000000" stroke-width="2.00" transform="matrix(1.00, 0.00, 0.00, -1.00, 84.6, 71.5)"></path><g><clipPath id="clip0x6080032b6e60"><path d="M 80.6 7.0 L 350.2 7.0 L 350.2 71.5 L 80.6 71.5 Z M 80.6 7.0 "></path></clipPath><g clip-path="url(#clip0x6080032b6e60)"><text xml:space="preserve" font-family="Helvetica,Helvetica" font-size="36.0" fill="#51A7F9" transform="matrix(1.00, 0.00, -0.00, -1.00, 176.4, 25.7)">b</text><text xml:space="preserve" font-family="Helvetica,Helvetica" font-size="36.0" fill="#51A7F9" transform="matrix(1.00, 0.00, -0.00, -1.00, 196.4, 25.7)">o</text><text xml:space="preserve" font-family="Helvetica,Helvetica" font-size="36.0" fill="#51A7F9" transform="matrix(1.00, 0.00, -0.00, -1.00, 216.4, 25.7)">d</text><text xml:space="preserve" font-family="Helvetica,Helvetica" font-size="36.0" fill="#51A7F9" transform="matrix(1.00, 0.00, -0.00, -1.00, 236.4, 25.7)">y</text></g></g></g></svg>