<?xml version="1.0" encoding="UTF-8" standalone="no"?><svg xmlns="http://www.w3.org/2000/svg" xmlns:xlink="http://www.w3.org/1999/xlink" clip-rule="evenodd" stroke-miterlimit="10" viewBox="0 0 352 79"><desc>SVG generated by Keynote</desc><defs></defs><g transform="matrix(1.00, 0.00, -0.00, -1.00, 0.0, 79.0)"><image xlink:href="160917BDE6C15E451F7F8AB33EAAA115.png" width="349.00" height="73.00" transform="matrix(1.00, 0.00, -0.00, -0.99, 1.6, 73.5)" opacity="0.50"></image><path d="M 93.9 72.0 C 88.9 71.5 85.0 67.5 85.0 62.5 L 85.0 28.1 L 4.7 20.9 L 85.4 13.5 C 86.5 9.8 89.8 7.0 93.9 7.0 L 337.4 7.0 C 342.4 7.0 346.0 11.0 346.0 16.0 L 346.0 62.5 C 346.0 67.5 342.4 72.0 337.4 72.0 L 93.9 72.0 Z M 93.9 71.5 " fill="#FEFFFE"></path><path d="M 9.0 -0.5 C 4.0 0.0 0.1 4.0 0.1 9.0 L 0.1 43.4 L -80.2 50.7 L 0.5 58.0 C 1.6 61.8 4.9 64.5 9.0 64.5 L 252.6 64.5 C 257.5 64.5 261.1 60.5 261.1 55.6 L 261.1 9.0 C 261.1 4.0 257.5 -0.5 252.6 -0.5 L 9.0 -0.5 Z M 9.0 0.0 " fill="none" stroke="#000000" stroke-width="2.00" transform="matrix(1.00, 0.00, 0.00, -1.00, 84.9, 71.5)"></path><g><clipPath id="clip0x6080032b6260"><path d="M 80.9 7.0 L 350.4 7.0 L 350.4 71.5 L 80.9 71.5 Z M 80.9 7.0 "></path></clipPath><g clip-path="url(#clip0x6080032b6260)"><text xml:space="preserve" font-family="Helvetica,Helvetica" font-size="36.0" fill="#51A7F9" transform="matrix(1.00, 0.00, -0.00, -1.00, 159.6, 25.7)">h</text><text xml:space="preserve" font-family="Helvetica,Helvetica" font-size="36.0" fill="#51A7F9" transform="matrix(1.00, 0.00, -0.00, -1.00, 179.6, 25.7)">e</text><text xml:space="preserve" font-family="Helvetica,Helvetica" font-size="36.0" fill="#51A7F9" transform="matrix(1.00, 0.00, -0.00, -1.00, 199.7, 25.7)">a</text><text xml:space="preserve" font-family="Helvetica,Helvetica" font-size="36.0" fill="#51A7F9" transform="matrix(1.00, 0.00, -0.00, -1.00, 219.7, 25.7)">d</text><text xml:space="preserve" font-family="Helvetica,Helvetica" font-size="36.0" fill="#51A7F9" transform="matrix(1.00, 0.00, -0.00, -1.00, 239.7, 25.7)">e</text><text xml:space="preserve" font-family="Helvetica,Helvetica" font-size="36.0" fill="#51A7F9" transform="matrix(1.00, 0.00, -0.00, -1.00, 259.7, 25.7)">r</text></g></g></g></svg>