<?xml version="1.0" encoding="UTF-8" standalone="no"?><svg xmlns="http://www.w3.org/2000/svg" xmlns:xlink="http://www.w3.org/1999/xlink" clip-rule="evenodd" stroke-miterlimit="10" viewBox="0 0 512 50"><desc>SVG generated by Keynote</desc><defs></defs><g transform="matrix(1.00, 0.00, -0.00, -1.00, 0.0, 50.0)"><text xml:space="preserve" font-family="HelveticaNeue-Thin,Helvetica Neue" font-size="50.0" fill="#000000" transform="matrix(1.00, 0.00, -0.00, -1.00, 2.7, 11.6)">T</text><text xml:space="preserve" font-family="HelveticaNeue-Thin,Helvetica Neue" font-size="50.0" fill="#000000" transform="matrix(1.00, 0.00, -0.00, -1.00, 28.6, 11.6)">h</text><text xml:space="preserve" font-family="HelveticaNeue-Thin,Helvetica Neue" font-size="50.0" fill="#000000" transform="matrix(1.00, 0.00, -0.00, -1.00, 54.6, 11.6)">a</text><text xml:space="preserve" font-family="HelveticaNeue-Thin,Helvetica Neue" font-size="50.0" fill="#000000" transform="matrix(1.00, 0.00, -0.00, -1.00, 79.6, 11.6)">t</text><text xml:space="preserve" font-family="HelveticaNeue-Thin,Helvetica Neue" font-size="50.0" fill="#000000" transform="matrix(1.00, 0.00, -0.00, -1.00, 92.5, 11.6)"> </text><text xml:space="preserve" font-family="HelveticaNeue-Thin,Helvetica Neue" font-size="50.0" fill="#000000" transform="matrix(1.00, 0.00, -0.00, -1.00, 106.4, 11.6)">w</text><text xml:space="preserve" font-family="HelveticaNeue-Thin,Helvetica Neue" font-size="50.0" fill="#000000" transform="matrix(1.00, 0.00, -0.00, -1.00, 141.6, 11.6)">i</text><text xml:space="preserve" font-family="HelveticaNeue-Thin,Helvetica Neue" font-size="50.0" fill="#000000" transform="matrix(1.00, 0.00, -0.00, -1.00, 150.0, 11.6)">l</text><text xml:space="preserve" font-family="HelveticaNeue-Thin,Helvetica Neue" font-size="50.0" fill="#000000" transform="matrix(1.00, 0.00, -0.00, -1.00, 158.4, 11.6)">l</text><text xml:space="preserve" font-family="HelveticaNeue-Thin,Helvetica Neue" font-size="50.0" fill="#000000" transform="matrix(1.00, 0.00, -0.00, -1.00, 166.8, 11.6)"> </text><text xml:space="preserve" font-family="HelveticaNeue-Thin,Helvetica Neue" font-size="50.0" fill="#000000" transform="matrix(1.00, 0.00, -0.00, -1.00, 180.7, 11.6)">b</text><text xml:space="preserve" font-family="HelveticaNeue-Thin,Helvetica Neue" font-size="50.0" fill="#000000" transform="matrix(1.00, 0.00, -0.00, -1.00, 208.5, 11.6)">e</text><text xml:space="preserve" font-family="HelveticaNeue-Thin,Helvetica Neue" font-size="50.0" fill="#000000" transform="matrix(1.00, 0.00, -0.00, -1.00, 234.5, 11.6)"> </text><text xml:space="preserve" font-family="HelveticaNeue-Thin,Helvetica Neue" font-size="50.0" fill="#000000" transform="matrix(1.00, 0.00, -0.00, -1.00, 248.4, 11.6)">t</text><text xml:space="preserve" font-family="HelveticaNeue-Thin,Helvetica Neue" font-size="50.0" fill="#000000" transform="matrix(1.00, 0.00, -0.00, -1.00, 261.3, 11.6)">h</text><text xml:space="preserve" font-family="HelveticaNeue-Thin,Helvetica Neue" font-size="50.0" fill="#000000" transform="matrix(1.00, 0.00, -0.00, -1.00, 287.3, 11.6)">e</text><text xml:space="preserve" font-family="HelveticaNeue-Thin,Helvetica Neue" font-size="50.0" fill="#000000" transform="matrix(1.00, 0.00, -0.00, -1.00, 313.2, 11.6)"> </text><text xml:space="preserve" font-family="HelveticaNeue-Thin,Helvetica Neue" font-size="50.0" fill="#000000" transform="matrix(1.00, 0.00, -0.00, -1.00, 327.1, 11.6)">o</text><text xml:space="preserve" font-family="HelveticaNeue-Thin,Helvetica Neue" font-size="50.0" fill="#000000" transform="matrix(1.00, 0.00, -0.00, -1.00, 354.0, 11.6)">u</text><text xml:space="preserve" font-family="HelveticaNeue-Thin,Helvetica Neue" font-size="50.0" fill="#000000" transform="matrix(1.00, 0.00, -0.00, -1.00, 379.9, 11.6)">t</text><text xml:space="preserve" font-family="HelveticaNeue-Thin,Helvetica Neue" font-size="50.0" fill="#000000" transform="matrix(1.00, 0.00, -0.00, -1.00, 392.9, 11.6)">p</text><text xml:space="preserve" font-family="HelveticaNeue-Thin,Helvetica Neue" font-size="50.0" fill="#000000" transform="matrix(1.00, 0.00, -0.00, -1.00, 420.7, 11.6)">u</text><text xml:space="preserve" font-family="HelveticaNeue-Thin,Helvetica Neue" font-size="50.0" fill="#000000" transform="matrix(1.00, 0.00, -0.00, -1.00, 446.6, 11.6)">t</text><text xml:space="preserve" font-family="HelveticaNeue-Thin,Helvetica Neue" font-size="50.0" fill="#000000" transform="matrix(1.00, 0.00, -0.00, -1.00, 459.6, 11.6)">.</text><text xml:space="preserve" font-family="HelveticaNeue-Thin,Helvetica Neue" font-size="50.0" fill="#000000" transform="matrix(1.00, 0.00, -0.00, -1.00, 473.5, 11.6)"> </text><text xml:space="preserve" font-family="HelveticaNeue-Thin,Helvetica Neue" font-size="50.0" fill="#000000" transform="matrix(1.00, 0.00, -0.00, -1.00, 487.4, 11.6)">:</text><text xml:space="preserve" font-family="HelveticaNeue-Thin,Helvetica Neue" font-size="50.0" fill="#000000" transform="matrix(1.00, 0.00, -0.00, -1.00, 501.3, 11.6)">)</text></g></svg>