<?xml version="1.0" encoding="UTF-8" standalone="no"?><svg xmlns="http://www.w3.org/2000/svg" xmlns:xlink="http://www.w3.org/1999/xlink" clip-rule="evenodd" stroke-miterlimit="10" viewBox="0 0 272 58"><desc>SVG generated by Keynote</desc><defs></defs><g transform="matrix(1.00, 0.00, -0.00, -1.00, 0.0, 58.0)"><text xml:space="preserve" font-family="NewUnicodeFont,NewUnicodeFont" font-size="50.0" fill="#000000" transform="matrix(1.00, 0.00, -0.00, -1.00, 4.1, 10.4)">W</text><text xml:space="preserve" font-family="NewUnicodeFont,NewUnicodeFont" font-size="50.0" fill="#000000" transform="matrix(1.00, 0.00, -0.00, -1.00, 36.3, 10.4)">h</text><text xml:space="preserve" font-family="NewUnicodeFont,NewUnicodeFont" font-size="50.0" fill="#000000" transform="matrix(1.00, 0.00, -0.00, -1.00, 57.2, 10.4)">a</text><text xml:space="preserve" font-family="NewUnicodeFont,NewUnicodeFont" font-size="50.0" fill="#000000" transform="matrix(1.00, 0.00, -0.00, -1.00, 77.8, 10.4)">t</text><text xml:space="preserve" font-family="NewUnicodeFont,NewUnicodeFont" font-size="50.0" fill="#000000" transform="matrix(1.00, 0.00, -0.00, -1.00, 92.7, 10.4)"> </text><text xml:space="preserve" font-family="NewUnicodeFont,NewUnicodeFont" font-size="50.0" fill="#000000" transform="matrix(1.00, 0.00, -0.00, -1.00, 102.2, 10.4)">a</text><text xml:space="preserve" font-family="NewUnicodeFont,NewUnicodeFont" font-size="50.0" fill="#000000" transform="matrix(1.00, 0.00, -0.00, -1.00, 122.9, 10.4)">r</text><text xml:space="preserve" font-family="NewUnicodeFont,NewUnicodeFont" font-size="50.0" fill="#000000" transform="matrix(1.00, 0.00, -0.00, -1.00, 139.1, 10.4)">e</text><text xml:space="preserve" font-family="NewUnicodeFont,NewUnicodeFont" font-size="50.0" fill="#000000" transform="matrix(1.00, 0.00, -0.00, -1.00, 158.3, 10.4)"> </text><text xml:space="preserve" font-family="NewUnicodeFont,NewUnicodeFont" font-size="50.0" fill="#000000" transform="matrix(1.00, 0.00, -0.00, -1.00, 167.8, 10.4)">t</text><text xml:space="preserve" font-family="NewUnicodeFont,NewUnicodeFont" font-size="50.0" fill="#000000" transform="matrix(1.00, 0.00, -0.00, -1.00, 182.7, 10.4)">h</text><text xml:space="preserve" font-family="NewUnicodeFont,NewUnicodeFont" font-size="50.0" fill="#000000" transform="matrix(1.00, 0.00, -0.00, -1.00, 203.6, 10.4)">e</text><text xml:space="preserve" font-family="NewUnicodeFont,NewUnicodeFont" font-size="50.0" fill="#000000" transform="matrix(1.00, 0.00, -0.00, -1.00, 222.8, 10.4)">y</text><text xml:space="preserve" font-family="NewUnicodeFont,NewUnicodeFont" font-size="50.0" fill="#000000" transform="matrix(1.00, 0.00, -0.00, -1.00, 240.5, 10.4)">?</text></g></svg>