<?xml version="1.0" encoding="UTF-8" standalone="no"?><svg xmlns="http://www.w3.org/2000/svg" xmlns:xlink="http://www.w3.org/1999/xlink" clip-rule="evenodd" stroke-miterlimit="10" viewBox="0 0 666 99"><desc>SVG generated by Keynote</desc><defs></defs><g transform="matrix(1.00, 0.00, -0.00, -1.00, 0.0, 99.0)"><text xml:space="preserve" font-family="KGBrokenVesselsSketch,KG Broken Vessels Sketch" font-size="120.0" fill="#B26AE1" transform="matrix(1.00, 0.00, -0.00, -1.00, 0.1, 5.0)">J</text><text xml:space="preserve" font-family="KGBrokenVesselsSketch,KG Broken Vessels Sketch" font-size="120.0" fill="#B26AE1" transform="matrix(1.00, 0.00, -0.00, -1.00, 57.1, 5.0)">A</text><text xml:space="preserve" font-family="KGBrokenVesselsSketch,KG Broken Vessels Sketch" font-size="120.0" fill="#B26AE1" transform="matrix(1.00, 0.00, -0.00, -1.00, 131.7, 5.0)">V</text><text xml:space="preserve" font-family="KGBrokenVesselsSketch,KG Broken Vessels Sketch" font-size="120.0" fill="#B26AE1" transform="matrix(1.00, 0.00, -0.00, -1.00, 202.1, 5.0)">A</text><text xml:space="preserve" font-family="KGBrokenVesselsSketch,KG Broken Vessels Sketch" font-size="120.0" fill="#B26AE1" transform="matrix(1.00, 0.00, -0.00, -1.00, 295.5, 5.0)">S</text><text xml:space="preserve" font-family="KGBrokenVesselsSketch,KG Broken Vessels Sketch" font-size="120.0" fill="#B26AE1" transform="matrix(1.00, 0.00, -0.00, -1.00, 359.7, 5.0)">C</text><text xml:space="preserve" font-family="KGBrokenVesselsSketch,KG Broken Vessels Sketch" font-size="120.0" fill="#B26AE1" transform="matrix(1.00, 0.00, -0.00, -1.00, 439.7, 5.0)">R</text><text xml:space="preserve" font-family="KGBrokenVesselsSketch,KG Broken Vessels Sketch" font-size="120.0" fill="#B26AE1" transform="matrix(1.00, 0.00, -0.00, -1.00, 509.2, 5.0)">I</text><text xml:space="preserve" font-family="KGBrokenVesselsSketch,KG Broken Vessels Sketch" font-size="120.0" fill="#B26AE1" transform="matrix(1.00, 0.00, -0.00, -1.00, 542.9, 5.0)">P</text><text xml:space="preserve" font-family="KGBrokenVesselsSketch,KG Broken Vessels Sketch" font-size="120.0" fill="#B26AE1" transform="matrix(1.00, 0.00, -0.00, -1.00, 606.5, 5.0)">T</text></g></svg>